<svg id="visual" viewBox="0 0 900 600" width="900" height="600" xmlns="http://www.w3.org/2000/svg" xmlns:xlink="http://www.w3.org/1999/xlink" version="1.1"><path d="M0 229L37.5 216C75 203 150 177 225 174C300 171 375 191 450 187C525 183 600 155 675 138C750 121 825 115 862.5 112L900 109L900 0L862.5 0C825 0 750 0 675 0C600 0 525 0 450 0C375 0 300 0 225 0C150 0 75 0 37.5 0L0 0Z" fill="#ffffff"></path><path d="M0 343L37.5 345C75 347 150 351 225 361C300 371 375 387 450 381C525 375 600 347 675 329C750 311 825 303 862.5 299L900 295L900 107L862.5 110C825 113 750 119 675 136C600 153 525 181 450 185C375 189 300 169 225 172C150 175 75 201 37.5 214L0 227Z" fill="#feecfe"></path><path d="M0 445L37.5 449C75 453 150 461 225 461C300 461 375 453 450 449C525 445 600 445 675 439C750 433 825 421 862.5 415L900 409L900 293L862.5 297C825 301 750 309 675 327C600 345 525 373 450 379C375 385 300 369 225 359C150 349 75 345 37.5 343L0 341Z" fill="#fdd9fd"></path><path d="M0 529L37.5 528C75 527 150 525 225 521C300 517 375 511 450 514C525 517 600 529 675 539C750 549 825 557 862.5 561L900 565L900 407L862.5 413C825 419 750 431 675 437C600 443 525 443 450 447C375 451 300 459 225 459C150 459 75 451 37.5 447L0 443Z" fill="#fbc5fc"></path><path d="M0 601L37.5 601C75 601 150 601 225 601C300 601 375 601 450 601C525 601 600 601 675 601C750 601 825 601 862.5 601L900 601L900 563L862.5 559C825 555 750 547 675 537C600 527 525 515 450 512C375 509 300 515 225 519C150 523 75 525 37.5 526L0 527Z" fill="#f9b1fa"></path></svg>