<svg id="visual" viewBox="0 0 900 600" width="900" height="600" xmlns="http://www.w3.org/2000/svg" xmlns:xlink="http://www.w3.org/1999/xlink" version="1.1"><rect x="0" y="0" width="900" height="600" fill="#f3d8cf"></rect><path d="M0 390L21.5 383.5C43 377 86 364 128.8 371.2C171.7 378.3 214.3 405.7 257.2 418.5C300 431.3 343 429.7 385.8 418.5C428.7 407.3 471.3 386.7 514.2 387.5C557 388.3 600 410.7 642.8 420.5C685.7 430.3 728.3 427.7 771.2 428.2C814 428.7 857 432.3 878.5 434.2L900 436L900 601L878.5 601C857 601 814 601 771.2 601C728.3 601 685.7 601 642.8 601C600 601 557 601 514.2 601C471.3 601 428.7 601 385.8 601C343 601 300 601 257.2 601C214.3 601 171.7 601 128.8 601C86 601 43 601 21.5 601L0 601Z" fill="#fd8cff"></path><path d="M0 449L21.5 443C43 437 86 425 128.8 427.7C171.7 430.3 214.3 447.7 257.2 457.7C300 467.7 343 470.3 385.8 462.2C428.7 454 471.3 435 514.2 422.8C557 410.7 600 405.3 642.8 403.7C685.7 402 728.3 404 771.2 413C814 422 857 438 878.5 446L900 454L900 601L878.5 601C857 601 814 601 771.2 601C728.3 601 685.7 601 642.8 601C600 601 557 601 514.2 601C471.3 601 428.7 601 385.8 601C343 601 300 601 257.2 601C214.3 601 171.7 601 128.8 601C86 601 43 601 21.5 601L0 601Z" fill="#d275d7"></path><path d="M0 500L21.5 499.2C43 498.3 86 496.7 128.8 493.5C171.7 490.3 214.3 485.7 257.2 476C300 466.3 343 451.7 385.8 456.3C428.7 461 471.3 485 514.2 489.5C557 494 600 479 642.8 467.2C685.7 455.3 728.3 446.7 771.2 453C814 459.3 857 480.7 878.5 491.3L900 502L900 601L878.5 601C857 601 814 601 771.2 601C728.3 601 685.7 601 642.8 601C600 601 557 601 514.2 601C471.3 601 428.7 601 385.8 601C343 601 300 601 257.2 601C214.3 601 171.7 601 128.8 601C86 601 43 601 21.5 601L0 601Z" fill="#a95fb0"></path><path d="M0 522L21.5 520.3C43 518.7 86 515.3 128.8 513.2C171.7 511 214.3 510 257.2 512.8C300 515.7 343 522.3 385.8 527C428.7 531.7 471.3 534.3 514.2 531.7C557 529 600 521 642.8 521.5C685.7 522 728.3 531 771.2 527.3C814 523.7 857 507.3 878.5 499.2L900 491L900 601L878.5 601C857 601 814 601 771.2 601C728.3 601 685.7 601 642.8 601C600 601 557 601 514.2 601C471.3 601 428.7 601 385.8 601C343 601 300 601 257.2 601C214.3 601 171.7 601 128.8 601C86 601 43 601 21.5 601L0 601Z" fill="#824a8a"></path><path d="M0 536L21.5 536C43 536 86 536 128.8 540.3C171.7 544.7 214.3 553.3 257.2 553.7C300 554 343 546 385.8 539.8C428.7 533.7 471.3 529.3 514.2 530.2C557 531 600 537 642.8 536.8C685.7 536.7 728.3 530.3 771.2 532.7C814 535 857 546 878.5 551.5L900 557L900 601L878.5 601C857 601 814 601 771.2 601C728.3 601 685.7 601 642.8 601C600 601 557 601 514.2 601C471.3 601 428.7 601 385.8 601C343 601 300 601 257.2 601C214.3 601 171.7 601 128.8 601C86 601 43 601 21.5 601L0 601Z" fill="#5e3566"></path></svg>