<svg id="visual" viewBox="0 0 900 600" width="900" height="600" xmlns="http://www.w3.org/2000/svg" xmlns:xlink="http://www.w3.org/1999/xlink" version="1.1"><rect x="0" y="0" width="900" height="600" fill="#f3d8cf"></rect><path d="M0 208L21.5 214.5C43 221 86 234 128.8 226.8C171.7 219.7 214.3 192.3 257.2 179.5C300 166.7 343 168.3 385.8 179.5C428.7 190.7 471.3 211.3 514.2 210.5C557 209.7 600 187.3 642.8 177.5C685.7 167.7 728.3 170.3 771.2 169.8C814 169.3 857 165.7 878.5 163.8L900 162L900 0L878.5 0C857 0 814 0 771.2 0C728.3 0 685.7 0 642.8 0C600 0 557 0 514.2 0C471.3 0 428.7 0 385.8 0C343 0 300 0 257.2 0C214.3 0 171.7 0 128.8 0C86 0 43 0 21.5 0L0 0Z" fill="#fd8cff"></path><path d="M0 149L21.5 155C43 161 86 173 128.8 170.3C171.7 167.7 214.3 150.3 257.2 140.3C300 130.3 343 127.7 385.8 135.8C428.7 144 471.3 163 514.2 175.2C557 187.3 600 192.7 642.8 194.3C685.7 196 728.3 194 771.2 185C814 176 857 160 878.5 152L900 144L900 0L878.5 0C857 0 814 0 771.2 0C728.3 0 685.7 0 642.8 0C600 0 557 0 514.2 0C471.3 0 428.7 0 385.8 0C343 0 300 0 257.2 0C214.3 0 171.7 0 128.8 0C86 0 43 0 21.5 0L0 0Z" fill="#d275d7"></path><path d="M0 98L21.5 98.8C43 99.7 86 101.3 128.8 104.5C171.7 107.7 214.3 112.3 257.2 122C300 131.7 343 146.3 385.8 141.7C428.7 137 471.3 113 514.2 108.5C557 104 600 119 642.8 130.8C685.7 142.7 728.3 151.3 771.2 145C814 138.7 857 117.3 878.5 106.7L900 96L900 0L878.5 0C857 0 814 0 771.2 0C728.3 0 685.7 0 642.8 0C600 0 557 0 514.2 0C471.3 0 428.7 0 385.8 0C343 0 300 0 257.2 0C214.3 0 171.7 0 128.8 0C86 0 43 0 21.5 0L0 0Z" fill="#a95fb0"></path><path d="M0 76L21.5 77.7C43 79.3 86 82.7 128.8 84.8C171.7 87 214.3 88 257.2 85.2C300 82.3 343 75.7 385.8 71C428.7 66.3 471.3 63.7 514.2 66.3C557 69 600 77 642.8 76.5C685.7 76 728.3 67 771.2 70.7C814 74.3 857 90.7 878.5 98.8L900 107L900 0L878.5 0C857 0 814 0 771.2 0C728.3 0 685.7 0 642.8 0C600 0 557 0 514.2 0C471.3 0 428.7 0 385.8 0C343 0 300 0 257.2 0C214.3 0 171.7 0 128.8 0C86 0 43 0 21.5 0L0 0Z" fill="#824a8a"></path><path d="M0 62L21.5 62C43 62 86 62 128.8 57.7C171.7 53.3 214.3 44.7 257.2 44.3C300 44 343 52 385.8 58.2C428.7 64.3 471.3 68.7 514.2 67.8C557 67 600 61 642.8 61.2C685.7 61.3 728.3 67.7 771.2 65.3C814 63 857 52 878.5 46.5L900 41L900 0L878.5 0C857 0 814 0 771.2 0C728.3 0 685.7 0 642.8 0C600 0 557 0 514.2 0C471.3 0 428.7 0 385.8 0C343 0 300 0 257.2 0C214.3 0 171.7 0 128.8 0C86 0 43 0 21.5 0L0 0Z" fill="#5e3566"></path></svg>